<svg width="1574" height="255" xmlns="http://www.w3.org/2000/svg"><path d="M408.94 174.099c0 28.81-15.806 46.361-39.319 46.361-24.173 0-39.999-17.551-39.999-46.361V71.808h-36.495v101.63c0 49.341 27.815 81.461 75.171 81.461 47.021 0 76.826-32.783 76.826-81.461V71.808H408.94v102.291m68.257 77.447h36.532V1.031h-36.532zM894.5 72.011l-51.15 131.867-51.495-131.867h-38.967l71.674 179.535h37.228l71.68-179.535H894.5m432.67 73.372-21.42-4.838c-13.12-3.111-19.69-10.02-19.69-19.348 0-12.783 12.09-20.727 28.33-20.383 10.02 0 20.04 3.111 29.71 7.946 12.09 5.528 22.11 13.475 26.26 17.275V88.722c-6.22-4.489-28.68-19.691-57.7-19.691-40.07 0-64.26 26.257-64.26 55.277 0 27.292 19.69 40.767 45.61 46.984l20.73 4.838c18.31 4.147 27.29 10.71 27.29 23.147 0 12.439-10.71 24.184-30.4 24.184-12.44 0-24.88-4.147-34.9-9.675-12.09-6.217-21.07-13.818-23.49-16.237l-.69 38.004c2.42 2.417 23.15 19.346 60.11 19.346 41.12 0 66.68-28.33 66.68-57.35 0-25.219-17.62-44.567-52.17-52.166M694.628 251.546h36.534V72.011h-36.534zM699.782.652 686.67 23.363l13.112 22.712h26.226l13.112-22.712L726.008.652h-26.226M220.823 71.808h-.064l-72.265 119.049V71.808h-40.689l-71.998 118.61V71.808H.744v180.04h35.192l77.46-128.065v128.065h35.108c.008-.014.028 0 .028 0h.078l77.354-127.424v127.424h35.09V71.808h-40.231m1216.727 69.204c2.36-6.548 5.69-12.394 9.98-17.456 6.3-7.444 13.72-13.16 22.08-16.99 8.36-3.826 16.92-5.766 25.45-5.766 12.74 0 23.03 2.75 30.59 8.172 6.7 4.812 9.83 10.7 9.83 18.528 0 4.5-1.17 10.312-10.27 15.352-8.83 4.892-19.32 7.371-31.17 7.371-17.1 0-36.07-3.094-56.49-9.211zm115.87 54.006-8.8 7.652c-7.72 6.708-15.84 11.883-24.13 15.382-7.99 3.37-17.81 5.078-29.18 5.078-10.28 0-19.67-2.291-28.68-7.005-8.9-4.644-15.89-11.135-21.38-19.844-4.65-7.385-7.26-15.479-7.92-24.628 8.27 2.479 16.17 4.57 23.61 6.248 12.01 2.714 24.49 4.091 37.1 4.091 12.14 0 23.84-1.943 34.77-5.774 11.46-4.015 20.93-10.019 28.16-17.841 7.88-8.521 11.87-18.909 11.87-30.877 0-11.335-3.47-21.713-10.3-30.845-6.6-8.819-15.75-15.75-27.2-20.602-11.02-4.659-23.23-7.022-36.28-7.022-15.65 0-30.89 3.835-45.3 11.398-14.52 7.622-26.59 18.947-35.87 33.661-9.34 14.797-14.08 32.577-14.08 52.846 0 18.173 4.56 34.194 13.55 47.617 8.91 13.311 20.72 23.51 35.11 30.315 14.07 6.656 29.17 10.031 44.89 10.031 14.7 0 28.05-2.61 39.69-7.76 11.16-4.943 22.06-11.932 32.38-20.773l7.83-6.702-19.84-24.646zM669.339 71.808h-45.996V20.869H586.81v50.939h-45.996v31.66h45.996v148.078h36.533V103.468h45.996v-31.66m352.221 31.01c26.71 0 43.09 17.99 47.84 42.947h-97.41c5.14-24.957 22.52-42.947 49.57-42.947zm61.43 73.206h22.34c.35-4.577.7-9.503.7-14.079 0-51.384-35.9-92.914-84.47-92.914-49.97 0-87.63 41.53-87.63 92.914 0 51.385 40.82 92.916 96.08 92.916 42.23 0 65.46-20.063 65.46-20.063v-36.954s-25.69 22.877-62.64 22.877c-33.41 0-55.22-18.624-60.88-44.635l111.04-.057v-.005zm147.13-104.356h-98.73v179.536h36.53V103.329h62.2V71.668" fill="#4D61F4" fill-rule="evenodd"/></svg>